<mxfile host="Electron" agent="Mozilla/5.0 (Windows NT 10.0; Win64; x64) AppleWebKit/537.36 (KHTML, like Gecko) draw.io/26.1.1 Chrome/132.0.6834.210 Electron/34.3.3 Safari/537.36" version="26.1.1">
  <diagram id="C5RBs43oDa-KdzZeNtuy" name="Page-1">
    <mxGraphModel dx="2048" dy="1886" grid="1" gridSize="10" guides="1" tooltips="1" connect="1" arrows="1" fold="1" page="1" pageScale="1" pageWidth="827" pageHeight="1169" math="0" shadow="0">
      <root>
        <mxCell id="WIyWlLk6GJQsqaUBKTNV-0" />
        <mxCell id="WIyWlLk6GJQsqaUBKTNV-1" parent="WIyWlLk6GJQsqaUBKTNV-0" />
        <mxCell id="TMLK2thUwYO2S0ojSoeF-79" value="Software development team" style="html=1;whiteSpace=wrap;align=left;" parent="WIyWlLk6GJQsqaUBKTNV-1" vertex="1">
          <mxGeometry x="-160" y="370" width="1250" height="450" as="geometry" />
        </mxCell>
        <mxCell id="TMLK2thUwYO2S0ojSoeF-78" value="The management&amp;nbsp; team" style="html=1;whiteSpace=wrap;align=left;" parent="WIyWlLk6GJQsqaUBKTNV-1" vertex="1">
          <mxGeometry x="-160" y="120" width="1230" height="240" as="geometry" />
        </mxCell>
        <mxCell id="TMLK2thUwYO2S0ojSoeF-76" value="Members" style="html=1;whiteSpace=wrap;align=left;" parent="WIyWlLk6GJQsqaUBKTNV-1" vertex="1">
          <mxGeometry x="-160" y="-90" width="1310" height="200" as="geometry" />
        </mxCell>
        <mxCell id="TMLK2thUwYO2S0ojSoeF-27" style="edgeStyle=orthogonalEdgeStyle;rounded=0;orthogonalLoop=1;jettySize=auto;html=1;entryX=0.5;entryY=0;entryDx=0;entryDy=0;" parent="WIyWlLk6GJQsqaUBKTNV-1" source="TMLK2thUwYO2S0ojSoeF-0" target="TMLK2thUwYO2S0ojSoeF-4" edge="1">
          <mxGeometry relative="1" as="geometry">
            <mxPoint x="340" y="510" as="targetPoint" />
          </mxGeometry>
        </mxCell>
        <mxCell id="TMLK2thUwYO2S0ojSoeF-0" value="&lt;span style=&quot;color: rgb(42, 43, 46); font-family: &amp;quot;PingFang SC&amp;quot;, &amp;quot;Segoe UI&amp;quot;, Arial, &amp;quot;Microsoft YaHei&amp;quot;, 微软雅黑, 宋体, &amp;quot;Malgun Gothic&amp;quot;, sans-serif; font-size: 14px; text-align: start; background-color: rgb(255, 255, 255);&quot;&gt;Accepted proposals are forwarded to the software development team&lt;/span&gt;" style="html=1;dashed=0;rounded=1;absoluteArcSize=1;arcSize=20;verticalAlign=middle;align=center;whiteSpace=wrap;" parent="WIyWlLk6GJQsqaUBKTNV-1" vertex="1">
          <mxGeometry x="255" y="390" width="170" height="70" as="geometry" />
        </mxCell>
        <mxCell id="TMLK2thUwYO2S0ojSoeF-1" value="*" style="text;resizeWidth=0;resizeHeight=0;points=[];part=1;verticalAlign=middle;align=center;html=1;" parent="TMLK2thUwYO2S0ojSoeF-0" vertex="1">
          <mxGeometry x="1" y="0.5" width="20" height="20" relative="1" as="geometry">
            <mxPoint x="-20" y="-10" as="offset" />
          </mxGeometry>
        </mxCell>
        <mxCell id="TMLK2thUwYO2S0ojSoeF-23" value="" style="edgeStyle=orthogonalEdgeStyle;rounded=0;orthogonalLoop=1;jettySize=auto;html=1;entryX=0.5;entryY=0;entryDx=0;entryDy=0;" parent="WIyWlLk6GJQsqaUBKTNV-1" source="TMLK2thUwYO2S0ojSoeF-2" target="TMLK2thUwYO2S0ojSoeF-55" edge="1">
          <mxGeometry relative="1" as="geometry">
            <mxPoint x="340" y="60" as="targetPoint" />
          </mxGeometry>
        </mxCell>
        <mxCell id="TMLK2thUwYO2S0ojSoeF-2" value="&lt;span style=&quot;color: rgb(42, 43, 46); font-family: &amp;quot;PingFang SC&amp;quot;, &amp;quot;Segoe UI&amp;quot;, Arial, &amp;quot;Microsoft YaHei&amp;quot;, 微软雅黑, 宋体, &amp;quot;Malgun Gothic&amp;quot;, sans-serif; font-size: 14px; text-align: start; background-color: rgb(255, 255, 255);&quot;&gt;Members prepare &#39;new feature&#39; proposals&lt;/span&gt;" style="html=1;dashed=0;rounded=1;absoluteArcSize=1;arcSize=20;verticalAlign=middle;align=center;whiteSpace=wrap;" parent="WIyWlLk6GJQsqaUBKTNV-1" vertex="1">
          <mxGeometry x="260" y="-80" width="160" height="50" as="geometry" />
        </mxCell>
        <mxCell id="TMLK2thUwYO2S0ojSoeF-3" value="*" style="text;resizeWidth=0;resizeHeight=0;points=[];part=1;verticalAlign=middle;align=center;html=1;" parent="TMLK2thUwYO2S0ojSoeF-2" vertex="1">
          <mxGeometry x="1" y="0.5" width="20" height="20" relative="1" as="geometry">
            <mxPoint x="-20" y="-10" as="offset" />
          </mxGeometry>
        </mxCell>
        <mxCell id="TMLK2thUwYO2S0ojSoeF-4" value="&lt;span style=&quot;color: rgb(42, 43, 46); font-family: &amp;quot;PingFang SC&amp;quot;, &amp;quot;Segoe UI&amp;quot;, Arial, &amp;quot;Microsoft YaHei&amp;quot;, 微软雅黑, 宋体, &amp;quot;Malgun Gothic&amp;quot;, sans-serif; font-size: 14px; text-align: start; background-color: rgb(255, 255, 255);&quot;&gt;The software development team meets to discuss new requirements&lt;/span&gt;" style="html=1;dashed=0;rounded=1;absoluteArcSize=1;arcSize=20;verticalAlign=middle;align=center;whiteSpace=wrap;" parent="WIyWlLk6GJQsqaUBKTNV-1" vertex="1">
          <mxGeometry x="260" y="560" width="160" height="80" as="geometry" />
        </mxCell>
        <mxCell id="TMLK2thUwYO2S0ojSoeF-5" value="*" style="text;resizeWidth=0;resizeHeight=0;points=[];part=1;verticalAlign=middle;align=center;html=1;" parent="TMLK2thUwYO2S0ojSoeF-4" vertex="1">
          <mxGeometry x="1" y="0.5" width="20" height="20" relative="1" as="geometry">
            <mxPoint x="-20" y="-10" as="offset" />
          </mxGeometry>
        </mxCell>
        <mxCell id="TMLK2thUwYO2S0ojSoeF-50" style="edgeStyle=orthogonalEdgeStyle;rounded=0;orthogonalLoop=1;jettySize=auto;html=1;entryX=0.5;entryY=0;entryDx=0;entryDy=0;" parent="WIyWlLk6GJQsqaUBKTNV-1" source="TMLK2thUwYO2S0ojSoeF-14" target="TMLK2thUwYO2S0ojSoeF-16" edge="1">
          <mxGeometry relative="1" as="geometry" />
        </mxCell>
        <mxCell id="TMLK2thUwYO2S0ojSoeF-14" value="&lt;span style=&quot;color: rgb(42, 43, 46); font-family: &amp;quot;PingFang SC&amp;quot;, &amp;quot;Segoe UI&amp;quot;, Arial, &amp;quot;Microsoft YaHei&amp;quot;, 微软雅黑, 宋体, &amp;quot;Malgun Gothic&amp;quot;, sans-serif; font-size: 14px; text-align: start; background-color: rgb(255, 255, 255);&quot;&gt;After the new feature is approved, the project manager arranges the development plan&lt;/span&gt;" style="html=1;dashed=0;rounded=1;absoluteArcSize=1;arcSize=20;verticalAlign=middle;align=center;whiteSpace=wrap;" parent="WIyWlLk6GJQsqaUBKTNV-1" vertex="1">
          <mxGeometry x="-85" y="260" width="160" height="80" as="geometry" />
        </mxCell>
        <mxCell id="TMLK2thUwYO2S0ojSoeF-15" value="*" style="text;resizeWidth=0;resizeHeight=0;points=[];part=1;verticalAlign=middle;align=center;html=1;" parent="TMLK2thUwYO2S0ojSoeF-14" vertex="1">
          <mxGeometry x="1" y="0.5" width="20" height="20" relative="1" as="geometry">
            <mxPoint x="-20" y="-10" as="offset" />
          </mxGeometry>
        </mxCell>
        <mxCell id="TMLK2thUwYO2S0ojSoeF-51" style="edgeStyle=orthogonalEdgeStyle;rounded=0;orthogonalLoop=1;jettySize=auto;html=1;entryX=0.5;entryY=0;entryDx=0;entryDy=0;" parent="WIyWlLk6GJQsqaUBKTNV-1" source="TMLK2thUwYO2S0ojSoeF-16" target="TMLK2thUwYO2S0ojSoeF-17" edge="1">
          <mxGeometry relative="1" as="geometry" />
        </mxCell>
        <mxCell id="TMLK2thUwYO2S0ojSoeF-16" value="&lt;span style=&quot;color: rgb(42, 43, 46); font-family: &amp;quot;PingFang SC&amp;quot;, &amp;quot;Segoe UI&amp;quot;, Arial, &amp;quot;Microsoft YaHei&amp;quot;, 微软雅黑, 宋体, &amp;quot;Malgun Gothic&amp;quot;, sans-serif; font-size: 14px; text-align: start; background-color: rgb(255, 255, 255);&quot;&gt;The software development team builds the functionality into the system&lt;/span&gt;" style="html=1;align=center;verticalAlign=top;rounded=1;absoluteArcSize=1;arcSize=10;dashed=0;whiteSpace=wrap;" parent="WIyWlLk6GJQsqaUBKTNV-1" vertex="1">
          <mxGeometry x="15" y="570" width="150" height="85" as="geometry" />
        </mxCell>
        <mxCell id="TMLK2thUwYO2S0ojSoeF-53" style="edgeStyle=orthogonalEdgeStyle;rounded=0;orthogonalLoop=1;jettySize=auto;html=1;entryX=0.5;entryY=0;entryDx=0;entryDy=0;" parent="WIyWlLk6GJQsqaUBKTNV-1" source="TMLK2thUwYO2S0ojSoeF-17" target="TMLK2thUwYO2S0ojSoeF-19" edge="1">
          <mxGeometry relative="1" as="geometry" />
        </mxCell>
        <mxCell id="TMLK2thUwYO2S0ojSoeF-17" value="&lt;span style=&quot;color: rgb(42, 43, 46); font-family: &amp;quot;PingFang SC&amp;quot;, &amp;quot;Segoe UI&amp;quot;, Arial, &amp;quot;Microsoft YaHei&amp;quot;, 微软雅黑, 宋体, &amp;quot;Malgun Gothic&amp;quot;, sans-serif; font-size: 14px; text-align: start; background-color: rgb(255, 255, 255);&quot;&gt;The new functionality is available for related members&lt;/span&gt;" style="html=1;align=center;verticalAlign=top;rounded=1;absoluteArcSize=1;arcSize=10;dashed=0;whiteSpace=wrap;" parent="WIyWlLk6GJQsqaUBKTNV-1" vertex="1">
          <mxGeometry x="20" y="725" width="140" height="60" as="geometry" />
        </mxCell>
        <mxCell id="TMLK2thUwYO2S0ojSoeF-21" style="edgeStyle=orthogonalEdgeStyle;rounded=0;orthogonalLoop=1;jettySize=auto;html=1;entryX=0.5;entryY=0;entryDx=0;entryDy=0;" parent="WIyWlLk6GJQsqaUBKTNV-1" source="TMLK2thUwYO2S0ojSoeF-18" target="TMLK2thUwYO2S0ojSoeF-2" edge="1">
          <mxGeometry relative="1" as="geometry" />
        </mxCell>
        <mxCell id="TMLK2thUwYO2S0ojSoeF-18" value="" style="ellipse;fillColor=strokeColor;html=1;" parent="WIyWlLk6GJQsqaUBKTNV-1" vertex="1">
          <mxGeometry x="325" y="-130" width="30" height="30" as="geometry" />
        </mxCell>
        <mxCell id="TMLK2thUwYO2S0ojSoeF-19" value="" style="ellipse;html=1;shape=endState;fillColor=strokeColor;" parent="WIyWlLk6GJQsqaUBKTNV-1" vertex="1">
          <mxGeometry x="75" y="855" width="30" height="30" as="geometry" />
        </mxCell>
        <mxCell id="TMLK2thUwYO2S0ojSoeF-24" style="edgeStyle=orthogonalEdgeStyle;rounded=0;orthogonalLoop=1;jettySize=auto;html=1;entryX=0.5;entryY=0;entryDx=0;entryDy=0;exitX=0.5;exitY=1;exitDx=0;exitDy=0;exitPerimeter=0;" parent="WIyWlLk6GJQsqaUBKTNV-1" source="TMLK2thUwYO2S0ojSoeF-22" target="TMLK2thUwYO2S0ojSoeF-0" edge="1">
          <mxGeometry relative="1" as="geometry">
            <mxPoint x="340" y="340" as="targetPoint" />
            <mxPoint x="340" y="300" as="sourcePoint" />
          </mxGeometry>
        </mxCell>
        <mxCell id="TMLK2thUwYO2S0ojSoeF-39" value="accept the proposa;" style="edgeLabel;html=1;align=center;verticalAlign=middle;resizable=0;points=[];" parent="TMLK2thUwYO2S0ojSoeF-24" vertex="1" connectable="0">
          <mxGeometry x="0.058" y="-2" relative="1" as="geometry">
            <mxPoint as="offset" />
          </mxGeometry>
        </mxCell>
        <mxCell id="TMLK2thUwYO2S0ojSoeF-36" style="edgeStyle=orthogonalEdgeStyle;rounded=0;orthogonalLoop=1;jettySize=auto;html=1;exitX=0;exitY=0.5;exitDx=0;exitDy=0;exitPerimeter=0;entryX=1;entryY=0.5;entryDx=0;entryDy=0;" parent="WIyWlLk6GJQsqaUBKTNV-1" source="TMLK2thUwYO2S0ojSoeF-22" target="TMLK2thUwYO2S0ojSoeF-37" edge="1">
          <mxGeometry relative="1" as="geometry">
            <mxPoint x="229.99999999999977" y="290.52941176470586" as="targetPoint" />
            <Array as="points">
              <mxPoint x="210" y="290" />
              <mxPoint x="210" y="190" />
              <mxPoint x="-240" y="190" />
            </Array>
          </mxGeometry>
        </mxCell>
        <mxCell id="TMLK2thUwYO2S0ojSoeF-38" value="reject the proposal" style="edgeLabel;html=1;align=center;verticalAlign=middle;resizable=0;points=[];" parent="TMLK2thUwYO2S0ojSoeF-36" vertex="1" connectable="0">
          <mxGeometry x="-0.2082" y="-2" relative="1" as="geometry">
            <mxPoint as="offset" />
          </mxGeometry>
        </mxCell>
        <mxCell id="TMLK2thUwYO2S0ojSoeF-42" style="edgeStyle=orthogonalEdgeStyle;rounded=0;orthogonalLoop=1;jettySize=auto;html=1;exitX=1;exitY=0.5;exitDx=0;exitDy=0;exitPerimeter=0;entryX=0;entryY=0.5;entryDx=0;entryDy=0;" parent="WIyWlLk6GJQsqaUBKTNV-1" source="TMLK2thUwYO2S0ojSoeF-22" target="TMLK2thUwYO2S0ojSoeF-59" edge="1">
          <mxGeometry relative="1" as="geometry">
            <mxPoint x="590" y="292.5" as="targetPoint" />
            <Array as="points">
              <mxPoint x="530" y="290" />
              <mxPoint x="530" y="292" />
              <mxPoint x="840" y="292" />
            </Array>
          </mxGeometry>
        </mxCell>
        <mxCell id="TMLK2thUwYO2S0ojSoeF-43" value="requests changes to the proposal&amp;nbsp;" style="edgeLabel;html=1;align=center;verticalAlign=middle;resizable=0;points=[];" parent="TMLK2thUwYO2S0ojSoeF-42" vertex="1" connectable="0">
          <mxGeometry x="-0.2221" y="2" relative="1" as="geometry">
            <mxPoint x="14" y="2" as="offset" />
          </mxGeometry>
        </mxCell>
        <mxCell id="TMLK2thUwYO2S0ojSoeF-22" value="" style="strokeWidth=2;html=1;shape=mxgraph.flowchart.decision;whiteSpace=wrap;" parent="WIyWlLk6GJQsqaUBKTNV-1" vertex="1">
          <mxGeometry x="310" y="260" width="60" height="60" as="geometry" />
        </mxCell>
        <mxCell id="TMLK2thUwYO2S0ojSoeF-45" style="edgeStyle=orthogonalEdgeStyle;rounded=0;orthogonalLoop=1;jettySize=auto;html=1;exitX=0;exitY=0.5;exitDx=0;exitDy=0;exitPerimeter=0;entryX=0.5;entryY=0;entryDx=0;entryDy=0;" parent="WIyWlLk6GJQsqaUBKTNV-1" source="TMLK2thUwYO2S0ojSoeF-28" target="TMLK2thUwYO2S0ojSoeF-14" edge="1">
          <mxGeometry relative="1" as="geometry">
            <mxPoint x="159.99999999999977" y="799.9999999999998" as="targetPoint" />
          </mxGeometry>
        </mxCell>
        <mxCell id="TMLK2thUwYO2S0ojSoeF-47" value="agree to implement" style="edgeLabel;html=1;align=center;verticalAlign=middle;resizable=0;points=[];" parent="TMLK2thUwYO2S0ojSoeF-45" vertex="1" connectable="0">
          <mxGeometry x="-0.0529" y="-4" relative="1" as="geometry">
            <mxPoint x="-1" as="offset" />
          </mxGeometry>
        </mxCell>
        <mxCell id="TMLK2thUwYO2S0ojSoeF-46" style="edgeStyle=orthogonalEdgeStyle;rounded=0;orthogonalLoop=1;jettySize=auto;html=1;exitX=1;exitY=0.5;exitDx=0;exitDy=0;exitPerimeter=0;entryX=0.5;entryY=1;entryDx=0;entryDy=0;" parent="WIyWlLk6GJQsqaUBKTNV-1" source="TMLK2thUwYO2S0ojSoeF-28" target="TMLK2thUwYO2S0ojSoeF-59" edge="1">
          <mxGeometry relative="1" as="geometry">
            <mxPoint x="660" y="300" as="targetPoint" />
          </mxGeometry>
        </mxCell>
        <mxCell id="TMLK2thUwYO2S0ojSoeF-48" value="disagree to implement" style="edgeLabel;html=1;align=center;verticalAlign=middle;resizable=0;points=[];" parent="TMLK2thUwYO2S0ojSoeF-46" vertex="1" connectable="0">
          <mxGeometry x="-0.1718" y="4" relative="1" as="geometry">
            <mxPoint x="-1" as="offset" />
          </mxGeometry>
        </mxCell>
        <mxCell id="TMLK2thUwYO2S0ojSoeF-28" value="" style="strokeWidth=2;html=1;shape=mxgraph.flowchart.decision;whiteSpace=wrap;" parent="WIyWlLk6GJQsqaUBKTNV-1" vertex="1">
          <mxGeometry x="310" y="680" width="60" height="60" as="geometry" />
        </mxCell>
        <mxCell id="TMLK2thUwYO2S0ojSoeF-29" style="edgeStyle=orthogonalEdgeStyle;rounded=0;orthogonalLoop=1;jettySize=auto;html=1;entryX=0.5;entryY=0;entryDx=0;entryDy=0;entryPerimeter=0;" parent="WIyWlLk6GJQsqaUBKTNV-1" source="TMLK2thUwYO2S0ojSoeF-4" target="TMLK2thUwYO2S0ojSoeF-28" edge="1">
          <mxGeometry relative="1" as="geometry">
            <mxPoint x="340" y="640" as="targetPoint" />
          </mxGeometry>
        </mxCell>
        <mxCell id="TMLK2thUwYO2S0ojSoeF-33" value="&lt;span style=&quot;color: rgb(42, 43, 46); font-family: &amp;quot;PingFang SC&amp;quot;, &amp;quot;Segoe UI&amp;quot;, Arial, &amp;quot;Microsoft YaHei&amp;quot;, 微软雅黑, 宋体, &amp;quot;Malgun Gothic&amp;quot;, sans-serif; font-size: 14px; text-align: start; background-color: rgb(255, 255, 255);&quot;&gt;The management team meets to review the proposal&lt;/span&gt;" style="html=1;align=center;verticalAlign=top;rounded=1;absoluteArcSize=1;arcSize=10;dashed=0;whiteSpace=wrap;" parent="WIyWlLk6GJQsqaUBKTNV-1" vertex="1">
          <mxGeometry x="270" y="140" width="140" height="60" as="geometry" />
        </mxCell>
        <mxCell id="TMLK2thUwYO2S0ojSoeF-35" style="edgeStyle=orthogonalEdgeStyle;rounded=0;orthogonalLoop=1;jettySize=auto;html=1;entryX=0.5;entryY=0;entryDx=0;entryDy=0;entryPerimeter=0;" parent="WIyWlLk6GJQsqaUBKTNV-1" source="TMLK2thUwYO2S0ojSoeF-33" target="TMLK2thUwYO2S0ojSoeF-22" edge="1">
          <mxGeometry relative="1" as="geometry" />
        </mxCell>
        <mxCell id="TMLK2thUwYO2S0ojSoeF-37" value="" style="ellipse;html=1;shape=endState;fillColor=strokeColor;" parent="WIyWlLk6GJQsqaUBKTNV-1" vertex="1">
          <mxGeometry x="-270" y="170" width="30" height="30" as="geometry" />
        </mxCell>
        <mxCell id="TMLK2thUwYO2S0ojSoeF-56" style="edgeStyle=orthogonalEdgeStyle;rounded=0;orthogonalLoop=1;jettySize=auto;html=1;entryX=0.5;entryY=0;entryDx=0;entryDy=0;" parent="WIyWlLk6GJQsqaUBKTNV-1" source="TMLK2thUwYO2S0ojSoeF-55" target="TMLK2thUwYO2S0ojSoeF-33" edge="1">
          <mxGeometry relative="1" as="geometry" />
        </mxCell>
        <mxCell id="TMLK2thUwYO2S0ojSoeF-55" value="submits the proposal" style="html=1;align=center;verticalAlign=top;rounded=1;absoluteArcSize=1;arcSize=10;dashed=0;whiteSpace=wrap;" parent="WIyWlLk6GJQsqaUBKTNV-1" vertex="1">
          <mxGeometry x="270" y="60" width="140" height="40" as="geometry" />
        </mxCell>
        <mxCell id="TMLK2thUwYO2S0ojSoeF-61" style="edgeStyle=orthogonalEdgeStyle;rounded=0;orthogonalLoop=1;jettySize=auto;html=1;entryX=1;entryY=0.5;entryDx=0;entryDy=0;" parent="WIyWlLk6GJQsqaUBKTNV-1" source="TMLK2thUwYO2S0ojSoeF-59" target="TMLK2thUwYO2S0ojSoeF-55" edge="1">
          <mxGeometry relative="1" as="geometry">
            <mxPoint x="880" y="60" as="targetPoint" />
            <Array as="points">
              <mxPoint x="880" y="210" />
              <mxPoint x="640" y="210" />
              <mxPoint x="640" y="80" />
            </Array>
          </mxGeometry>
        </mxCell>
        <mxCell id="TMLK2thUwYO2S0ojSoeF-66" value="resubmit the proposal" style="edgeLabel;html=1;align=center;verticalAlign=middle;resizable=0;points=[];" parent="TMLK2thUwYO2S0ojSoeF-61" vertex="1" connectable="0">
          <mxGeometry x="-0.0637" y="6" relative="1" as="geometry">
            <mxPoint as="offset" />
          </mxGeometry>
        </mxCell>
        <mxCell id="TMLK2thUwYO2S0ojSoeF-63" style="edgeStyle=orthogonalEdgeStyle;rounded=0;orthogonalLoop=1;jettySize=auto;html=1;exitX=1;exitY=0.5;exitDx=0;exitDy=0;entryX=0;entryY=0.5;entryDx=0;entryDy=0;" parent="WIyWlLk6GJQsqaUBKTNV-1" source="TMLK2thUwYO2S0ojSoeF-59" target="TMLK2thUwYO2S0ojSoeF-65" edge="1">
          <mxGeometry relative="1" as="geometry">
            <mxPoint x="1060" y="284.3333333333335" as="targetPoint" />
          </mxGeometry>
        </mxCell>
        <mxCell id="TMLK2thUwYO2S0ojSoeF-64" value="withdraws the proposal" style="edgeLabel;html=1;align=center;verticalAlign=middle;resizable=0;points=[];" parent="TMLK2thUwYO2S0ojSoeF-63" vertex="1" connectable="0">
          <mxGeometry x="-0.0995" y="12" relative="1" as="geometry">
            <mxPoint as="offset" />
          </mxGeometry>
        </mxCell>
        <mxCell id="TMLK2thUwYO2S0ojSoeF-73" style="edgeStyle=orthogonalEdgeStyle;rounded=0;orthogonalLoop=1;jettySize=auto;html=1;entryX=1;entryY=1;entryDx=0;entryDy=0;" parent="WIyWlLk6GJQsqaUBKTNV-1" source="TMLK2thUwYO2S0ojSoeF-59" target="TMLK2thUwYO2S0ojSoeF-68" edge="1">
          <mxGeometry relative="1" as="geometry" />
        </mxCell>
        <mxCell id="TMLK2thUwYO2S0ojSoeF-74" value="return&lt;div&gt;&lt;br&gt;&lt;/div&gt;" style="edgeLabel;html=1;align=center;verticalAlign=middle;resizable=0;points=[];" parent="TMLK2thUwYO2S0ojSoeF-73" vertex="1" connectable="0">
          <mxGeometry x="0.1393" y="-1" relative="1" as="geometry">
            <mxPoint x="-18" y="-21" as="offset" />
          </mxGeometry>
        </mxCell>
        <mxCell id="TMLK2thUwYO2S0ojSoeF-59" value="" style="rhombus;whiteSpace=wrap;html=1;verticalAlign=top;rounded=1;arcSize=10;dashed=0;" parent="WIyWlLk6GJQsqaUBKTNV-1" vertex="1">
          <mxGeometry x="860" y="240" width="80" height="80" as="geometry" />
        </mxCell>
        <mxCell id="TMLK2thUwYO2S0ojSoeF-65" value="" style="ellipse;html=1;shape=endState;fillColor=strokeColor;" parent="WIyWlLk6GJQsqaUBKTNV-1" vertex="1">
          <mxGeometry x="1100" y="247.5" width="70" height="75" as="geometry" />
        </mxCell>
        <mxCell id="TMLK2thUwYO2S0ojSoeF-68" value="Members modifies the proposal" style="html=1;align=center;verticalAlign=top;rounded=1;absoluteArcSize=1;arcSize=10;dashed=0;whiteSpace=wrap;" parent="WIyWlLk6GJQsqaUBKTNV-1" vertex="1">
          <mxGeometry x="810" y="-80" width="140" height="40" as="geometry" />
        </mxCell>
        <mxCell id="TMLK2thUwYO2S0ojSoeF-75" style="edgeStyle=orthogonalEdgeStyle;rounded=0;orthogonalLoop=1;jettySize=auto;html=1;exitX=0;exitY=0.75;exitDx=0;exitDy=0;entryX=0.868;entryY=0.068;entryDx=0;entryDy=0;entryPerimeter=0;" parent="WIyWlLk6GJQsqaUBKTNV-1" source="TMLK2thUwYO2S0ojSoeF-68" target="TMLK2thUwYO2S0ojSoeF-55" edge="1">
          <mxGeometry relative="1" as="geometry">
            <Array as="points">
              <mxPoint x="490" y="-50" />
              <mxPoint x="490" y="63" />
            </Array>
          </mxGeometry>
        </mxCell>
      </root>
    </mxGraphModel>
  </diagram>
</mxfile>
